<?xml version="1.0" standalone="no"?>
<!DOCTYPE svg PUBLIC "-//W3C//DTD SVG 20010904//EN"
 "http://www.w3.org/TR/2001/REC-SVG-20010904/DTD/svg10.dtd">
<svg version="1.0" xmlns="http://www.w3.org/2000/svg"
 width="600.000000pt" height="600.000000pt" viewBox="0 0 600.000000 600.000000"
 preserveAspectRatio="xMidYMid meet">
<metadata>
Created by potrace 1.15, written by Peter Selinger 2001-2017
</metadata>
<g transform="translate(0.000000,600.000000) scale(0.100000,-0.100000)"
fill="#000000" stroke="none">
<path d="M1700 3545 l0 -1415 575 0 575 0 0 -565 0 -565 195 0 195 0 0 559 0
558 208 6 c234 6 337 22 492 73 334 111 543 335 616 659 25 112 25 350 0 460
-53 234 -195 384 -431 454 -169 50 -209 53 -757 58 l-518 5 0 -701 0 -701
-375 0 -375 0 0 1265 0 1265 -200 0 -200 0 0 -1415z m2079 -40 c197 -44 298
-120 347 -260 25 -73 31 -269 10 -359 -73 -312 -366 -485 -778 -460 l-118 7 0
550 0 550 233 -6 c162 -4 254 -10 306 -22z"/>
</g>
</svg>
